<?xml version="1.0" standalone="no"?>
<!DOCTYPE svg PUBLIC "-//W3C//DTD SVG 1.1//EN" "http://www.w3.org/Graphics/SVG/1.1/DTD/svg11.dtd" >
<svg xmlns="http://www.w3.org/2000/svg">
<metadata></metadata>
<defs>
<font id="hawdatingregular" horiz-adv-x="2048" >
<font-face units-per-em="2048" ascent="1638" descent="-410" />
<missing-glyph horiz-adv-x="500" />
<glyph horiz-adv-x="0" />
<glyph unicode="&#xd;" />
<glyph unicode="*" d="M252 891q4 29 18 48t34 35t45 25t52 16t55 11t54 8q18 4 98 4t108 24q40 34 67 108t54 147t71 107l62 26q76 0 122 -34t66 -87t35 -108t45 -105t80 -70q26 -10 78 -9t84 -3q46 -4 91 -13t81 -21t62 -41t34 -73q8 -56 -15 -106t-63 -87t-83 -70t-79 -70t-46 -73 q-8 -38 5 -101t32 -123t28 -119t-13 -105t-84 -66q-64 -22 -127 -1t-102 53t-93 69t-98 43q-42 8 -88 -17t-83 -61t-87 -66t-97 -35t-113 31q-58 36 -65 103t18 131t43 145t4 131q-14 42 -58 82t-90 68t-88 77t-52 107q-6 36 -2 65z" />
<glyph unicode="1" d="M341 121q13 -83 81 -133q52 -38 118 -38q102 0 164 82q24 34 34 70q6 20 12 50q8 50 28 100q18 46 49 94t47 68t22 26q30 38 104 70q74 -32 104 -70l3 -3l7 -7t9 -11t11 -16t14 -19t15 -21t15 -25t16 -27t15 -28t13 -31q22 -52 28 -100q6 -30 12 -48q10 -38 34 -72 q62 -82 164 -82q66 0 118 38q68 50 81 133t-37 151q-32 44 -82 68q-16 8 -46 26l-62 34q-80 44 -142 89t-70 53q-66 64 -86 84q274 636 286 680q14 58 -28 114l-20 26l-16 -28l-356 -586l-356 586l-16 28l-20 -26q-42 -58 -26 -114q10 -44 284 -680q-48 -54 -86 -84 q-2 -4 -25 -21t-77 -53t-110 -68l-62 -34q-38 -22 -46 -26q-50 -24 -82 -68q-50 -68 -37 -151zM456 138q-6 36 14 66q26 36 72 36q28 0 52 -18q28 -20 34 -56t-16 -66q-26 -36 -70 -36q-30 0 -52 18q-30 22 -34 56zM932 655q0 29 20 49t48 20t48 -20t20 -49t-20 -49t-48 -20 t-48 20t-20 49zM1372 166q6 36 36 56q22 18 50 18q46 0 72 -36q20 -28 15 -65t-35 -57q-22 -18 -52 -18q-44 0 -70 36q-22 30 -16 66z" />
<glyph unicode="2" d="M168 -50l360 116l892 882l-244 242l-890 -880zM880 77q0 53 37 91t90 38t91 -38t38 -91t-38 -90t-91 -37t-90 37t-37 90zM1224 77q0 53 37 91t90 38t91 -38t38 -91t-38 -90t-91 -37t-90 37t-37 90zM1562 77q0 53 37 91t90 38t91 -38t38 -91t-38 -90t-91 -37t-90 37 t-37 90z" />
<glyph unicode="3" d="M0 950q0 272 134 502t364 364t502 134t502 -134t364 -364t134 -502t-134 -502t-364 -364t-502 -134t-502 134t-364 364t-134 502zM96 950q0 -184 72 -351t193 -288t288 -193t351 -72t351 72t288 193t193 288t72 351t-72 351t-193 288t-288 193t-351 72t-351 -72 t-288 -193t-193 -288t-72 -351zM516 882q0 -24 14 -40q2 -4 207 -193t207 -191q36 -30 56 -30q22 0 56 30q2 2 207 191t207 193q14 16 14 40q0 26 -19 45t-45 19q-20 0 -36 -12l-316 -302v772q0 4 -1 11t-6 22t-22 25t-41 10q-32 0 -48 -17t-16 -33v-18v-772l-318 302 q-16 12 -36 12q-26 0 -45 -19t-19 -45z" />
<glyph unicode="4" d="M6 585q0 61 44 104t105 43t105 -42l382 -382l1098 1098q44 44 105 44t105 -43t44 -105t-44 -104l-1204 -1204q-44 -44 -104 -44q-62 0 -106 44l-486 486q-44 44 -44 105z" />
<glyph unicode="5" d="M256 -50v394l232 1106h300v-110h-218l-192 -982h410l68 -136h288l68 136h408l-190 982h-218v110h300l232 -1106v-394h-1488zM620 734l380 -380l380 380h-268v716h-216v-716h-276z" />
<glyph unicode="6" d="M280 1136v152h1440v-152h-116v-1186h-1208v1186h-116zM512 90h976v1046h-976v-1046zM750 188v872h104v-70v-732v-70h-104zM768 1288h80l12 80h280l12 -80h80l-22 162h-420zM854 328v578v-578zM1146 188v872h104v-70v-732v-70h-104zM1250 328v578v-578z" />
<glyph unicode="7" d="M464 58l536 -108l536 108v856l-108 22v86q0 176 -125 302t-303 126t-303 -126t-125 -302v-86l-108 -22v-856zM714 964v58q0 118 84 202t202 84t202 -84t84 -202v-58l-286 58zM928 342l28 160q-28 22 -28 54q0 30 21 51t51 21t51 -21t21 -49q0 -34 -28 -56l28 -160h-144z " />
<glyph unicode="8" d="M346 972l626 -476l2 272q8 2 23 2t57 -2t81 -11t86 -33t81 -59t58 -97t24 -141t-24 -148t-58 -116t-81 -86t-86 -61t-81 -39t-57 -21t-23 -6q50 6 124 26q68 18 133 44t146 75t139 110t98 155t40 204q0 108 -38 200t-98 153t-133 110t-146 76t-133 45t-98 24l-38 6v272z " />
<glyph unicode="9" d="M116 494q0 -76 80 -134q76 -56 166 -56h556l316 -336q18 -18 38 -18q22 0 34 4q18 12 30 38q14 36 14 52v270h148q86 0 138 52q56 56 56 138v346h-118v-368q0 -28 -26 -56q-24 -26 -56 -26h-208q-28 0 -46 -18q-18 -20 -18 -46v-202l-222 248q-20 18 -44 18h-632 q-30 0 -52 26q-24 24 -24 58v610q0 32 22 54q26 24 54 24h28h892v128h-880q-84 0 -166 -66q-80 -66 -80 -148v-592zM1350 1228v22q2 12 7 18t12 12t17 10q8 2 18 5t20 5q14 2 18 2q6 2 36 2q28 0 38 8q14 12 24 38l20 52q8 26 24 38l22 10q28 0 44 -12t24 -32q6 -18 12 -38 t16 -37t28 -25q10 -4 28 -4q18 2 30 0q18 -2 32 -4q18 -4 30 -8t22 -14q8 -10 12 -26q2 -22 -6 -39t-22 -31q-14 -12 -30 -24q-14 -12 -28 -26q-12 -12 -16 -26t1 -36t11 -44q8 -20 10 -42q4 -20 -4 -37t-30 -23q-22 -8 -45 -1t-37 19q-12 10 -32 24t-36 16q-14 2 -31 -7 t-30 -21t-31 -24q-18 -10 -35 -12t-39 10q-22 14 -24 38t6 46q10 22 16 52q6 28 2 46q-6 16 -22 30t-32 24t-31 27t-19 39z" />
<glyph unicode="A" d="M232 29q0 33 24 57t56 24h1376q32 0 56 -24t24 -57t-24 -56t-56 -23h-1376q-32 0 -56 23t-24 56zM232 477q0 -33 24 -57t56 -24h1376q32 0 56 24t24 57t-24 56t-56 23h-1376q-32 0 -56 -23t-24 -56zM232 923q0 -33 24 -56t56 -23h1376q32 0 56 23t24 56t-24 57t-56 24 h-1376q-32 0 -56 -24t-24 -57zM232 1371q0 -33 24 -57t56 -24h1376q32 0 56 24t24 57t-24 56t-56 23h-1376q-32 0 -56 -23t-24 -56z" />
<glyph unicode="B" d="M268 66v1210q0 40 28 73t64 33h952l-174 -126h-680q-32 0 -48 -21t-16 -55v-1042q0 -62 64 -62h524v272q0 36 31 67t65 31h276l2 312l140 112v-464l-396 -456h-740q-36 0 -64 37t-28 79zM688 504l334 118q-62 0 -106 22t-60 52t-28 62t-8 52t0 20zM878 824v6q0 54 36 88 l590 508q30 24 70 24q14 0 28 -3q58 -11 93 -52t37 -99v-6q0 -54 -36 -88l-590 -508q-30 -24 -71 -24q-13 0 -27 2q-58 10 -93 52t-37 100z" />
<glyph unicode="C" d="M250 618q-1 5 -1 9q0 31 23 57l32 34q26 28 31 73q1 10 1 19q0 33 -14 60l-22 42q-11 20 -11 41q0 14 5 27q12 34 50 46l42 16q38 14 63 51t25 77v46v5q0 34 25 57q23 21 54 21q5 0 11 -1l46 -6q9 -1 18 -1q31 0 61 16q39 21 57 55l20 42q18 36 53 44q9 2 18 2 q25 0 49 -16l38 -28q32 -22 76 -22t76 22l38 28q23 16 49 16q9 0 18 -2q35 -8 53 -44l20 -42q18 -34 57 -55q30 -16 61 -16q9 0 18 1l46 6q5 1 11 1q31 0 54 -21q25 -22 25 -57v-5v-46q0 -40 25 -77t63 -51l42 -16q38 -12 50 -46q5 -14 5 -27q0 -20 -11 -41l-22 -42 q-14 -27 -14 -60q0 -9 1 -19q5 -45 31 -73l32 -34q23 -26 23 -57q0 -5 -1 -9q-4 -36 -38 -58l-38 -26q-32 -20 -48 -63q-10 -26 -10 -51q0 -15 4 -30l12 -44q3 -12 3 -24q0 -24 -14 -44q-21 -30 -59 -34l-46 -4q-38 -4 -72 -34t-42 -68l-10 -46q-10 -38 -41 -55 q-17 -9 -36 -9q-15 0 -31 6l-44 18q-20 8 -43 8q-18 0 -37 -5q-44 -11 -68 -39l-30 -36q-26 -30 -62 -30t-62 30l-30 36q-24 28 -68 39q-19 5 -37 5q-23 0 -43 -8l-42 -18q-16 -6 -32 -6q-19 0 -36 9q-32 17 -42 55l-10 46q-8 38 -42 68t-72 34l-46 4q-38 4 -59 34 q-14 20 -14 44q0 11 3 24l12 44q4 15 4 30q0 25 -10 51q-16 43 -48 63l-38 26q-34 22 -38 58zM560 802h46v-288h58v376h-38q-6 -14 -11 -23t-19 -16t-36 -7v-42zM732 604q0 -94 90 -94t90 94v196q0 96 -90 96t-90 -96v-196zM790 602q0 -38 31 -38t31 38v202q0 38 -31 38 t-31 -38v-202zM944 604q0 -94 90 -94t90 94v196q0 96 -90 96t-90 -96v-196zM1004 602v202q0 38 31 38t31 -38v-202q0 -38 -31 -38t-31 38zM1162 708q0 -60 57 -60t57 60v124q0 60 -57 60t-57 -60v-124zM1196 836l4 -132q0 -20 16 -20q22 0 22 20l-2 132q0 24 -20 24t-20 -24 zM1216 514h36l148 376h-36zM1346 572q0 -60 57 -60t57 60v124q0 60 -57 60t-57 -60v-124zM1384 570q0 -24 19 -24t19 24v128q0 24 -19 24t-19 -24v-128z" />
<glyph unicode="D" d="M500 950q6 -124 76 -226l96 -152q6 -6 15 -23t29 -62t30 -124q6 -49 6 -105q0 -34 -2 -70q0 -56 44 -96q10 -10 39 -41t49 -49t53 -35t65 -17q42 0 76 20t82 71l48 51q44 40 44 96q-2 38 -2 76h-280q-28 0 -47 19t-19 45t19 45t47 19h292q10 58 27 103t29 61l12 16 l96 152q70 102 76 226q1 13 1 25q0 188 -141 327q-150 148 -360 148t-360 -148q-141 -139 -141 -327q0 -12 1 -25zM1026 1226q0 30 20 50t48 20h4q52 -6 108 -38q110 -62 136 -194q1 -6 1 -12q0 -21 -12 -40q-15 -24 -43 -28q-8 -2 -14 -2q-24 0 -43 15t-23 39q-8 38 -27 64 t-41 38t-34 16t-22 6v-2v2q-24 2 -41 22t-17 44z" />
<glyph unicode="E" d="M250 700q0 204 100 377t273 273t377 100t377 -100t273 -273t100 -377t-100 -377t-273 -273t-377 -100t-377 100t-273 273t-100 377zM396 700q0 -250 177 -427t427 -177t427 177t177 427t-177 427t-427 177t-427 -177t-177 -427zM696 396q42 222 98 360q12 42 38 76 q8 12 16 20q8 6 20 16q34 26 76 38q86 36 222 66l138 32q-42 -222 -98 -360q-12 -42 -38 -76q-8 -12 -16 -19t-20 -17q-34 -26 -76 -38q-86 -36 -222 -66zM946 700q0 -22 16 -38t38 -16t38 16t16 38t-16 38t-38 16t-38 -16t-16 -38z" />
<glyph unicode="F" d="M346 2q0 -4 3 -11t23 -21t55 -18q8 -1 15 -1q25 0 42 11q22 14 27 25t5 15v632q8 12 24 20q84 42 296 101q176 49 272 49q20 0 36 -2v-100q34 -40 121 -48q32 -3 63 -3q55 0 109 9q85 14 151 32l66 18v628q-18 -4 -96 -27t-112 -31t-96 -15q-33 -4 -65 -4q-27 0 -53 3 q-28 -4 -33 -2t-7 20q-14 46 -50 110q-54 8 -139 19t-253 28q-114 12 -178 12q-30 0 -48 -3q-2 0 -25 1t-37 1q-28 0 -72 -16t-44 -34v-1398zM516 670q4 -2 7 -2q7 0 11 8q50 118 62 268q4 56 4 108q0 86 -12 157q-20 115 -54 173q-8 19 -13 19q-4 0 -5 -11v-720z" />
<glyph unicode="G" d="M250 -2l750 600l752 -600l-34 -46l-718 576l-718 -576z" />
<glyph unicode="H" d="M52 138v200q272 0 294 -2h10q120 0 224 96l480 438q22 20 85 79t107 98t88 75q112 86 252 86q34 2 42 10t8 42v134h14q16 -18 33 -34t46 -39t35 -29q20 -18 62 -55t75 -65t65 -52v-14l-290 -252q-12 -10 -14 -14q-26 -18 -26 12v118q0 28 -8 34t-38 4q-36 -4 -72 -22 t-57 -35t-57 -49l-534 -492l-184 -164q-134 -114 -322 -114h-264q-2 0 -54 6zM52 1010v206h278q13 1 27 1q219 0 383 -157l176 -162q24 -24 24 -32t-26 -32q-12 -14 -47 -45t-53 -49q-20 -22 -46 2l-222 202q-74 66 -172 66h-322zM1064 480q0 8 26 30q58 52 98 90 q14 14 27 14l25 -12l216 -198q60 -54 142 -64q28 -4 36 3t8 35v56v54q0 22 8 24q6 4 22 -10l170 -148l130 -112v-14l-136 -114l-180 -160h-14v144q0 34 -30 34q-180 4 -336 144l-188 174q-24 22 -24 30z" />
<glyph unicode="I" d="M518 -50v1500h964v-1500h-964zM1000 378zM1482 -50z" />
<glyph unicode="J" d="M288 1234q0 -66 12 -132h-4l18 -62q4 -16 8 -30q2 -4 6 -14l4 -10q48 -134 144 -237t224 -161q120 -56 252 -64v-468h-360q-22 0 -38 -16t-16 -38t16 -37t38 -15h816q20 0 36 15t16 37t-16 38t-36 16h-350v468q122 10 232 60q132 56 231 161t149 241l2 6q4 12 6 20 q4 10 6 20v2l20 68h-4q12 64 12 130q0 100 -22 180q-12 38 -52 38h-1276q-40 0 -52 -38q-22 -80 -22 -178zM392 1234q0 58 10 110h1196q10 -54 10 -112q0 -66 -14 -130h-1186q-16 64 -16 132z" />
<glyph unicode="K" d="M250 1102q0 -118 44 -186q14 -22 48 -62q75 -89 75 -212q0 -12 -1 -24l-44 -554q0 -42 31 -73t74 -31t73 31t30 73l-42 554q-1 12 0 24q0 122 74 212q34 40 46 62q46 68 46 186q0 170 -120 292q-44 44 -107 44t-107 -44q-120 -122 -120 -292zM920 894q0 -52 26 -94 l68 -110q24 -40 24 -86l-46 -540q0 -44 30 -74t73 -30t74 30t31 74l-46 540q0 46 22 86l70 110q26 42 26 94q0 10 -2 22l-46 510q0 14 -14 14q-16 0 -16 -16l4 -476q0 -8 -6 -14t-15 -6t-15 6t-6 14l-8 476q0 16 -16 16t-16 -16v-476q0 -8 -6 -14t-15 -6t-15 6t-6 14v476 q0 16 -15 16t-15 -16l-8 -476q0 -8 -6 -14t-15 -6t-15 6t-6 14l4 476q0 16 -16 16q-14 0 -16 -14l-46 -510v-22zM1542 64v1304q0 30 20 50t48 20q52 0 84 -63t42 -139t12 -140l2 -64v-428q0 -40 -30 -74q-28 -30 -28 -70l58 -396q0 -42 -30 -73t-74 -31t-74 31t-30 73z" />
<glyph unicode="L" d="M288 603q0 -79 56 -136t135 -57t136 57t57 136t-57 135t-136 56t-135 -56t-56 -135zM400 1031q0 89 63 152t152 63t152 -63t63 -152t-63 -152t-152 -63t-152 63t-63 152zM488 218q0 72 50 123t122 51t123 -51t51 -123t-51 -122t-123 -50t-122 50t-50 122zM830 1213 q0 99 69 168t168 69t168 -69t69 -168t-69 -168t-168 -69t-168 69t-69 168zM888 106q0 64 46 110t110 46t110 -46t46 -110t-46 -110t-110 -46t-110 46t-46 110zM1266 264q0 -58 41 -99t99 -41t99 41t41 99t-41 99t-99 41t-99 -41t-41 -99zM1450 897q0 -47 34 -81t81 -34 t80 34t33 81t-33 80t-80 33t-81 -33t-34 -80zM1460 558q0 -52 37 -89t89 -37t89 37t37 89t-37 89t-89 37t-89 -37t-37 -89z" />
<glyph unicode="M" d="M338 38q0 -32 28 -60t60 -28h1148q32 0 60 28t28 60l-88 882q0 34 -28 61t-60 27h-146l-32 266q-6 68 -59 122t-117 54h-264q-64 0 -117 -54t-59 -122l-32 -266h-146q-32 0 -60 -27t-28 -61zM750 1008l30 266q4 34 30 61t58 27h264q32 0 58 -27t30 -61l30 -266h-500z" />
<glyph unicode="N" d="M250 881q0 -173 122 -295l452 -452q16 -18 41 -18t42 18t17 42t-18 42l-278 278l-36 36q-20 22 1 43t43 1l68 -68l254 -254q18 -18 42 -18t42 18l322 322q22 20 43 -1t1 -43l-36 -36l-296 -294q-16 -18 -16 -42t17 -42t42 -18t41 18l468 468q122 122 122 295t-122 296 t-296 123t-296 -124l-174 -174q-22 -22 0 -44q22 -19 52 -19q9 0 18 2q42 7 72 37l116 116q22 22 43 0t1 -44l-418 -416l-42 42l210 210q-76 10 -109 64q-12 20 -12 41q0 37 37 79l122 118q-119 111 -282 111h-9q-169 -3 -289 -123q-122 -122 -122 -295zM830 550l280 280v-2 q11 11 22 11l22 -11q22 -22 0 -42l-280 -280zM956 422l280 280q11 11 22 11l22 -11q11 -11 11 -22t-11 -22l-280 -280zM1280 658z" />
<glyph unicode="O" d="M250 552l8 12l8 10l8 12l8 12l180 -144l180 -144l180 -144l178 -144l180 144l180 144l180 144l178 144l10 -12l8 -12l8 -10l8 -12l-188 -150l-188 -150l-188 -150l-188 -150l-186 150l-188 150l-188 150z" />
<glyph unicode="P" d="M500 805q6 -147 26 -217q10 -176 12 -216q8 -86 79 -185t176 -168t201 -69q82 0 165 44t143 110t102 136t58 128q14 62 22 228q4 6 4 10q12 90 15 242v37q0 135 -19 275q-22 160 -74 194q-138 96 -354 96q-126 0 -241 -34t-202 -113t-103 -189q-12 -118 -12 -228 q0 -41 2 -81zM656 558q2 4 2 6l32 166q50 -6 154 -6q176 0 281 58t157 136l74 -318q-6 -146 -18 -196q-28 -104 -131 -208t-211 -104t-215 107t-117 199q0 26 -8 160z" />
<glyph unicode="Q" d="M250 700q0 -46 66 -90q-42 -49 -42 -87q0 -9 2 -17q12 -44 82 -68q-19 -40 -19 -71q0 -21 9 -37q24 -42 106 -46q-5 -27 -5 -49q0 -44 21 -65q22 -22 60 -22q22 0 52 6q4 -80 44 -104q14 -8 34 -8q30 0 74 20q24 -74 66 -84q8 -4 18 -4q38 0 88 46q46 -70 94 -70 q46 0 90 66q48 -42 86 -42q10 0 18 2q44 12 68 82q42 -20 70 -20q22 0 38 10q40 22 46 108q32 -8 52 -8q40 0 62 22q21 21 21 64q0 21 -5 48q80 4 104 44q9 15 9 35q0 31 -21 73q72 24 84 66q2 8 2 16q0 39 -46 90q72 46 72 94q0 46 -66 90q42 49 42 87q0 9 -2 17 q-12 44 -82 68q19 40 19 71q0 21 -9 37q-22 42 -106 46q5 27 5 49q0 44 -21 65q-22 22 -62 22q-20 0 -50 -6q-4 82 -44 104q-16 8 -34 8q-30 0 -74 -20q-24 72 -66 84q-8 4 -18 4q-38 0 -88 -46q-46 70 -94 70q-46 0 -90 -66q-48 42 -86 42q-10 0 -18 -2q-44 -12 -68 -82 q-42 20 -70 20q-22 0 -38 -10q-40 -22 -46 -108q-32 8 -52 8q-40 0 -62 -22q-21 -21 -21 -64q0 -21 5 -48q-80 -4 -104 -44q-9 -15 -9 -35q0 -31 21 -73q-74 -24 -84 -66q-2 -8 -2 -17q0 -38 44 -89q-70 -46 -70 -94zM284 700q0 30 60 68l26 -24l40 -40q-12 -14 -38 -38 l-32 -32q-56 36 -56 66zM308 514q-1 5 -1 10q0 27 37 68l40 -22l40 -22q-8 -12 -24 -38l-26 -44q-58 20 -66 48zM310 892q6 26 68 46l22 -38q18 -30 28 -46q-16 -8 -44 -24l-34 -20q-41 46 -41 73q0 5 1 9zM368 616l26 26l38 36q20 -26 22 -46t-14 -54l-40 22zM374 786 l26 14l42 24q16 -32 12 -52q-2 -18 -22 -44q-14 16 -40 40zM376 346q-5 9 -5 20q0 24 19 60q20 -4 49 -11t47 -13q-4 -20 -14 -52l-8 -34q-72 4 -88 30zM380 1058q14 24 82 28l10 -38q10 -32 14 -48q-20 -6 -50 -14q-24 -6 -42 -10q-19 39 -19 62q0 12 5 20zM408 456l20 36 l24 38q32 -22 40 -40t2 -54l-48 12q-24 6 -38 8zM412 946l32 8q36 8 50 12q6 -36 -2 -56q-8 -16 -36 -38q-6 12 -28 46zM454 702q30 36 34 66q1 5 1 10q0 27 -19 64q42 28 52 56q7 17 7 42q0 16 -3 36q48 18 66 42q18 22 22 68q48 6 72 24t40 64q20 -3 36 -3q24 0 40 7 q28 12 58 54q42 -20 71 -20h5q30 4 66 34q36 -30 66 -34q5 -1 10 -1q27 0 64 19q28 -40 56 -52q14 -7 36 -7q18 0 42 5q18 -50 42 -68t68 -24q6 -46 24 -69t64 -41q-3 -19 -3 -35q0 -24 7 -41q12 -28 54 -58q-20 -42 -20 -71v-5q4 -30 34 -66q-30 -36 -34 -66q-1 -5 -1 -10 q0 -27 19 -64q-42 -28 -52 -56q-7 -17 -7 -42q0 -16 3 -36q-48 -18 -66 -42q-18 -22 -22 -68q-48 -6 -72 -24q-22 -18 -40 -64q-20 3 -36 3q-24 0 -40 -7q-28 -12 -58 -54q-42 20 -71 20h-5q-30 -4 -66 -34q-36 30 -66 34h-10q-26 0 -64 -18q-28 42 -56 52q-16 8 -40 8 q-16 0 -38 -4q-18 48 -42 66q-22 18 -68 22q-6 48 -24 71t-64 41q3 19 3 35q0 24 -7 41q-12 28 -54 58q20 42 20 71v5q-4 30 -34 66zM488 282h3h1q14 0 36 2h36h18v-58q-2 -16 -2 -36q-30 -7 -51 -7q-25 0 -35 11q-13 12 -13 39q0 20 7 49zM488 1120q-6 27 -6 47q0 27 12 39 q10 11 37 11q21 0 53 -7q-2 -16 0 -38v-54h-18h-40q-22 2 -38 2zM496 1086h30q34 -2 56 -2q-4 -32 -16 -46q-12 -16 -48 -28q-4 16 -14 48zM498 316l6 26q10 30 14 50q34 -12 46 -27t16 -49q-2 0 -8 1t-8 1q-10 0 -36 -2h-30zM614 162l38 10q28 10 48 14q6 -16 14 -50 q4 -20 10 -40q-40 -20 -63 -20q-11 0 -19 4q-24 14 -28 82zM614 198v28q2 32 0 56q34 -4 48 -16q16 -12 28 -48q-20 -6 -48 -14zM616 1120q2 24 0 52v30q10 -2 26 -6q28 -10 50 -14q-12 -34 -27 -46t-49 -16zM616 1236q4 72 30 88q8 5 20 5q23 0 60 -19q-2 -16 -12 -48 q-6 -30 -12 -48q-22 4 -50 14zM734 192q38 8 55 0t39 -36q-16 -10 -46 -28l-28 -16l-8 32zM734 492h222v230h-74q0 26 3 41t20 36t51 31v108q-36 -6 -57 -11t-50 -19t-53 -38q-28 -28 -42 -66t-17 -63t-3 -73v-176zM736 1206q4 18 12 48q4 20 10 38l34 -20l38 -24 q-22 -32 -40 -40q-18 -6 -54 -2zM762 78l38 22q30 20 46 28q8 -16 24 -44l20 -34q-46 -41 -73 -41q-5 0 -9 1q-26 6 -46 68zM766 1326q20 58 48 66q4 1 9 1q27 0 69 -37l-22 -40l-22 -40l-38 24zM876 142q32 16 52 12q18 -2 44 -22l-40 -40l-18 -18l-14 26zM878 1260l22 40 l16 32l26 -26l36 -38q-26 -20 -46 -22t-54 14zM932 44l24 26l40 40q14 -12 38 -38l32 -34q-36 -54 -66 -54t-68 60zM934 1362q36 54 66 54t68 -60l-24 -26l-40 -40l-38 38zM1022 132q26 20 46 22t54 -14l-22 -40l-16 -32l-26 26zM1028 1268l40 40l18 18l14 -26l24 -42 q-32 -16 -52 -12q-18 2 -44 22zM1044 492h222v230h-76q2 26 5 41t20 36t51 31v108q-36 -6 -56 -11t-50 -19t-54 -38q-28 -28 -42 -66t-16 -63t-4 -73v-176zM1108 44l22 40l22 40l38 -24l44 -26q-20 -58 -48 -66q-4 -1 -9 -1q-27 0 -69 37zM1110 1350q46 41 73 41q5 0 9 -1 q26 -6 46 -68l-38 -22l-46 -28q-10 18 -24 44zM1170 152q22 32 40 40q18 6 54 2q-4 -18 -12 -48q-6 -26 -10 -38l-34 20zM1172 1244q18 10 46 28l28 16l8 -32q8 -30 12 -48q-38 -6 -55 1t-39 35zM1274 90q4 22 12 48q8 34 12 48q20 -4 52 -14l34 -8q-4 -72 -30 -88 q-8 -5 -20 -5q-23 0 -60 19zM1276 1304q40 20 63 20q11 0 19 -4q24 -14 28 -82l-36 -10q-28 -8 -50 -14q-6 16 -14 50zM1308 218q12 34 27 46t49 16q-2 -24 0 -52v-30q-14 2 -26 6q-28 10 -50 14zM1310 1182q20 4 48 14l28 6v-28q-2 -30 0 -56q-34 4 -48 16q-16 12 -28 48z M1416 228v54h18h40q22 -2 38 -2q7 -28 7 -47q0 -27 -13 -39q-10 -11 -36 -11q-21 0 -52 7q0 20 -2 38zM1418 316q4 32 16 46q12 16 48 28q4 -16 14 -48l8 -28h-30q-40 2 -56 2zM1418 1116v58q2 20 2 36q30 7 51 7q25 0 35 -11q13 -12 13 -39q0 -20 -7 -49h-3h-1 q-14 0 -36 -2h-36h-18zM1420 1084q18 -2 52 0h30l-6 -26q-10 -32 -14 -50q-34 12 -45 27t-17 49zM1506 434q-3 15 -3 28q0 17 5 28q8 16 36 38q10 -18 28 -46l16 -28l-32 -8q-32 -8 -50 -12zM1506 964q18 -4 48 -12q26 -6 40 -10l-22 -34l-24 -38q-32 22 -40 40q-5 10 -5 26 q0 13 3 28zM1514 400q20 6 50 14q22 4 42 10q19 -39 19 -62q0 -12 -5 -20q-14 -24 -82 -28l-10 38q-10 32 -14 48zM1514 998q4 16 14 50l8 36q72 -4 88 -30q5 -9 5 -21q0 -24 -19 -61q-18 6 -48 14q-34 8 -48 12zM1546 628q2 18 22 44l40 -40l18 -18l-26 -14l-42 -24 q-13 26 -13 44q0 4 1 8zM1546 773q0 19 14 49l40 -22l32 -16l-26 -26l-38 -36q-22 29 -22 51zM1572 546q16 8 44 24l34 20q41 -46 41 -73q0 -5 -1 -9q-6 -26 -68 -46l-22 38q-18 28 -28 46zM1576 852q8 12 24 38l26 44q58 -20 66 -48q1 -5 1 -10q0 -27 -37 -68l-40 22z M1590 696l38 38l34 32q54 -36 54 -66t-60 -68l-26 24q-26 28 -40 40z" />
<glyph unicode="R" d="M6 654q0 -74 22 -146t60 -130t87 -112t103 -96t109 -78t104 -61t87 -43t60 -27l22 -9q134 50 280 146q-128 98 -208 210q-114 164 -114 346q0 82 22 152q-26 70 -84 117t-128 65q-43 11 -89 11q-28 0 -56 -4q-75 -11 -137 -49t-101 -114t-39 -178zM688 654q0 -84 28 -163 t74 -142t105 -120t120 -99t120 -77t105 -56t74 -33l28 -12q14 6 38 15t92 43t129 72t137 101t130 130t91 157t37 184q0 114 -48 195t-121 115t-158 35h-5q-82 0 -152 -33q-72 -34 -121 -104t-49 -162q0 92 -48 162t-121 104q-71 33 -153 33h-5q-85 -1 -158 -35t-121 -115 t-48 -195z" />
<glyph unicode="S" d="M250 700l6 -86q2 -20 19 -35t39 -15h144q20 0 39 -12t25 -28q8 -22 10 -56t-12 -56l-102 -102q-14 -14 -15 -36t13 -38l120 -122q16 -12 38 -11t36 15l102 102q16 16 37 21t37 -3q22 -10 50 -36t28 -44v-144q0 -22 15 -39t35 -19q40 -6 86 -6l86 6q20 2 35 19t15 39v144 q0 20 12 39t28 25q22 8 56 10t56 -12l102 -102q14 -14 36 -15t38 11l122 122q12 16 11 38t-15 36l-102 102q-16 16 -21 37t3 37q10 22 36 50t44 28h144q22 0 39 15t19 35q6 40 6 86l-6 86q-2 20 -19 35t-39 15h-144q-20 0 -39 12t-25 28q-8 22 -10 56t12 56l102 102 q14 14 15 36t-11 38l-122 120q-16 14 -38 13t-36 -15l-102 -102q-16 -16 -37 -21t-37 3q-22 10 -50 36t-28 44v144q0 22 -15 39t-35 19q-40 6 -86 6l-86 -6q-20 -2 -35 -19t-15 -39v-144q0 -20 -12 -39t-28 -25q-22 -8 -56 -10t-56 12l-102 102q-14 14 -36 15t-38 -13 l-122 -120q-12 -16 -11 -38t15 -36l102 -102q16 -16 21 -37t-3 -37q-10 -22 -36 -50t-44 -28h-144q-22 0 -39 -15t-19 -35q-6 -40 -6 -86zM726 700q0 114 80 194t194 80t194 -80t80 -194t-80 -194t-194 -80t-194 80t-80 194z" />
<glyph unicode="T" d="M96 922q0 -228 144 -434q110 -158 300 -294q92 -68 202 -126t153 -76t69 -28l36 -14l38 14q26 10 69 28t153 76t202 126q190 136 300 294q146 206 146 434q0 250 -160 398q-142 130 -348 130q-198 0 -342 -120q-32 -26 -58 -56q-24 30 -56 56q-144 120 -342 120 q-206 0 -348 -130q-158 -148 -158 -398zM202 922q0 138 59 237t148 141t192 42t192 -40t148 -126t59 -198q0 112 60 198t149 126t192 40t192 -42t148 -141t59 -237q0 -116 -45 -226t-112 -192t-159 -158t-167 -123t-158 -88t-112 -53t-47 -18h2h-2q-16 6 -45 18t-112 53 t-158 88t-167 123t-159 158t-112 192t-45 226z" />
<glyph unicode="U" d="M250 700l100 -114l-54 -142l132 -74l-2 -152l150 -24l48 -144l150 30l96 -118l130 78l130 -78l96 118l150 -30l48 144l150 24l-2 152l132 74l-54 142l100 114l-100 114l54 142l-132 74l2 152l-150 24l-48 144l-150 -30l-96 118l-130 -78l-130 78l-96 -118l-150 30 l-48 -144l-150 -24l2 -152l-132 -74l54 -142zM706 504v166q0 44 2 69t18 60t46 61q24 22 54 36t52 18t62 10v-102q-36 -10 -55 -29t-21 -33t-4 -40h80v-216h-234zM1032 504v166q0 44 3 69t18 60t45 61q24 22 55 36t52 18t61 10v-102q-36 -10 -55 -29t-22 -33t-3 -40h80v-216 h-234zM1650 586z" />
<glyph unicode="W" d="M254 876q10 58 42 116t87 108t143 75q54 15 113 15q38 0 79 -6q74 -12 132 -46t87 -78t49 -95q19 -49 19 -93q0 -40 -5 -88q-10 -58 -33 -111t-61 -101t-96 -72q-41 -17 -88 -17q-20 0 -40 3q-38 6 -65 21t-35 27l-8 12q-34 -138 -40 -160q-4 -18 -38 -81t-50 -83 q-9 -12 -15 -12q-7 0 -7 22q0 2 -3 48t-3 80t2 60q4 14 36 158t34 152q-6 10 -16 43q-6 21 -6 46q0 15 2 31q6 54 41 88q30 29 66 29q6 0 13 -1q40 -6 54 -43q9 -24 9 -45q0 -12 -3 -24q-10 -20 -31 -110q-12 -51 -12 -82q0 -24 7 -36q10 -18 34 -31t55 -13t61 16t57 68 t39 134q2 46 5 82q1 8 1 15q0 27 -9 50q-11 29 -20 49t-28 36t-32 25t-34 15t-32 9t-27 5q-23 3 -46 3q-84 0 -161 -46q-97 -59 -113 -167q-5 -32 -5 -59q0 -77 39 -107q12 -10 10 -28q-2 -14 -10 -50q-2 -10 -13 -14t-29 8q-106 84 -106 203q0 23 4 47zM982 442 q-2 -30 26 -65t81 -43q5 -1 11 -1q50 0 122 67q0 -6 -4 -24l-4 -18q0 -12 18 -12q10 0 46 1l36 1q20 0 24 28q36 206 56 260q4 14 12 29t24 36t39 32t49 7q36 -6 37 -58v-5q0 -51 -19 -128q-20 -81 -22 -81q-2 -16 -2 -29q0 -91 80 -105q14 -3 27 -3q39 0 75 22q48 29 54 55 q2 7 2 12q0 13 -10 22q-14 12 -28 0q-14 -14 -37 -12t-35 20q-6 10 1 55t21 109t18 88q2 11 2 22q0 37 -22 68q-28 40 -86 44h-7q-56 0 -139 -64q2 10 5 23t3 15q2 6 -4 10t-14 4q-60 -2 -78 -2q-8 0 -11 -1t-9 -9t-10 -24q-14 -80 -52 -248q-8 -36 -34 -64t-52 -39t-46 -4 t-18 35q2 24 9 65t17 83t19 79t17 66t8 31q4 14 2 20t-18 8q-17 1 -32 1q-31 0 -58 -3q-10 0 -16 -26q-70 -316 -74 -350zM1072 930q-1 -5 -1 -10q0 -17 11 -36q14 -24 46 -28q7 -1 13 -1q26 0 48 19q27 24 31 60q1 8 1 16q0 51 -49 58q-5 1 -9 1q-26 0 -53 -19 q-32 -22 -38 -60z" />
<glyph unicode="X" d="M250 138q0 -80 56 -134t138 -54h1112q82 0 138 54t56 134v1110q0 82 -57 142t-137 60h-1112q-80 0 -137 -60t-57 -142v-1110zM500 262v342q0 228 134 360q56 58 124 82t180 38v-192q-68 -14 -104 -35t-44 -45t-10 -53t2 -59h156v-438h-438zM1062 262v342q0 228 132 360 q40 38 100 65t109 36t97 19v-192q-48 -12 -81 -29t-50 -31t-25 -41t-9 -42t-3 -49h168v-438h-438z" />
<glyph unicode="Z" d="M250 26v258q0 30 22 53t54 23h258q30 0 53 -23t23 -53v-258q0 -32 -23 -54t-53 -22h-258q-32 0 -54 22t-22 54zM250 572v256q0 32 22 54t54 22h258q30 0 53 -22t23 -54v-256q0 -32 -23 -54t-53 -22h-258q-32 0 -54 22t-22 54zM250 1116v258q0 32 22 54t54 22h258 q30 0 53 -22t23 -54v-258q0 -30 -23 -53t-53 -23h-258q-32 0 -54 23t-22 53zM796 32v264q0 30 20 47t52 17h264q32 0 52 -17t20 -47v-264q0 -32 -21 -57t-51 -25h-264q-30 0 -51 25t-21 57zM796 576v262q0 32 20 49t52 17h264q32 0 52 -17t20 -49v-262q0 -32 -21 -56 t-51 -24h-264q-30 0 -51 24t-21 56zM796 1118v264q0 30 20 49t52 19h264q32 0 52 -19t20 -49v-264q0 -32 -21 -55t-51 -23h-264q-30 0 -51 23t-21 55zM1340 32v254q0 32 24 53t56 21h254q32 0 54 -21t22 -53v-254q0 -32 -22 -57t-54 -25h-254q-30 0 -55 25t-25 57zM1340 572 v256q0 32 23 54t53 22h258q32 0 54 -22t22 -54v-256q0 -32 -22 -54t-54 -22h-258q-30 0 -53 22t-23 54zM1340 1128v254q0 30 24 49t56 19h254q32 0 54 -19t22 -49v-254q0 -34 -23 -61t-53 -27h-254q-30 0 -55 28t-25 60z" />
<glyph unicode="a" d="M340 72q0 -50 35 -86t85 -36h1080q50 0 85 36t35 86v898h-1320v-898zM340 1030h1320v14v104q0 50 -35 86t-85 36h-196v136q0 18 -13 31t-31 13t-32 -13t-14 -31v-136h-510v136q0 18 -13 31t-31 13t-32 -13t-14 -31v-136h-194q-50 0 -85 -36t-35 -86v-104v-14zM430 40v840 h1140v-840h-1140zM610 1150q0 52 46 78v-78q0 -18 13 -31t31 -13t32 13t14 31v78q44 -26 44 -78q0 -38 -26 -64t-64 -26t-64 26t-26 64zM650 606q0 -62 28 -119t73 -102t91 -85t92 -84t66 -84q20 40 66 84t92 84t91 85t73 102t28 119v18q-8 70 -60 117t-122 47 q-56 0 -102 -31t-66 -81q-20 50 -66 81t-102 31q-70 0 -122 -47t-60 -117v-18zM1210 1150q0 52 46 78v-78q0 -18 13 -31t31 -13t32 13t14 31v78q44 -26 44 -78q0 -38 -26 -64t-64 -26t-64 26t-26 64z" />
<glyph unicode="b" d="M250 618q-1 5 -1 9q0 31 23 57l32 34q26 28 31 73q1 10 1 19q0 33 -14 60l-22 42q-11 20 -11 41q0 14 5 27q12 34 50 46l42 16q38 14 63 51t25 77v46v5q0 34 25 57q23 21 54 21q5 0 11 -1l46 -6q9 -1 18 -1q31 0 61 16q39 21 57 55l20 42q18 36 53 44q9 2 18 2 q25 0 49 -16l38 -28q32 -22 76 -22t76 22l38 28q23 16 49 16q9 0 18 -2q35 -8 53 -44l20 -42q18 -34 57 -55q30 -16 61 -16q9 0 18 1l46 6q5 1 11 1q31 0 54 -21q25 -22 25 -57v-5v-46q0 -40 25 -77t63 -51l42 -16q38 -12 50 -46q5 -14 5 -27q0 -20 -11 -41l-22 -42 q-14 -27 -14 -60q0 -9 1 -19q5 -45 31 -73l32 -34q23 -26 23 -57q0 -5 -1 -9q-4 -36 -38 -58l-38 -26q-32 -20 -48 -63q-10 -26 -10 -51q0 -15 4 -30l12 -44q3 -12 3 -24q0 -24 -14 -44q-21 -30 -59 -34l-46 -4q-38 -4 -72 -34t-42 -68l-10 -46q-10 -38 -41 -55 q-17 -9 -36 -9q-15 0 -31 6l-44 18q-20 8 -43 8q-18 0 -37 -5q-44 -11 -68 -39l-30 -36q-26 -30 -62 -30t-62 30l-30 36q-24 28 -68 39q-19 5 -37 5q-23 0 -43 -8l-42 -18q-16 -6 -32 -6q-19 0 -36 9q-32 17 -42 55l-10 46q-8 38 -42 68t-72 34l-46 4q-38 4 -59 34 q-14 20 -14 44q0 11 3 24l12 44q4 15 4 30q0 25 -10 51q-16 43 -48 63l-38 26q-34 22 -38 58z" />
<glyph unicode="c" d="M250 220h1298q0 -86 -53 -140t-129 -54h-934q-68 0 -125 51t-57 143zM348 548v826h1092q126 0 218 -97t92 -231q0 -136 -100 -232t-248 -96v-170q0 -68 -49 -121t-123 -53h-708q-70 0 -122 51t-52 123zM1402 854q10 -1 19 -1q89 0 142 52q59 57 59 139q0 38 -16 80 t-60 79t-106 37h-38v-386z" />
<glyph unicode="d" d="M0 140h56q12 218 125 400t297 288t398 106q158 0 301 -59t255 -165l-390 -324q-34 12 -64 12q-90 0 -154 -66t-64 -158q0 -12 4 -34q12 -82 72 -136t141 -54t142 54t73 136q4 22 4 34q0 32 -12 68l306 408q190 -218 208 -510h302q0 210 -79 400t-213 328t-319 220 t-389 82t-389 -82t-319 -220t-213 -328t-79 -400z" />
<glyph unicode="e" d="M76 840zM76 840l360 -890l1498 606l-360 890zM238 730l538 -124l-302 -464zM316 822l1098 444l-394 -608zM596 130l290 450l184 -42l102 156l522 -120zM1234 790l302 464l236 -588zM1414 1266z" />
<glyph unicode="f" d="M638 730v224h156v70v70v10q0 168 50 234q84 112 240 112q86 0 156 -7t96 -13l26 -8l-38 -230q-66 20 -126 20q-50 0 -82 -20t-32 -62v-26v-80v-70h248l-18 -224h-230v-780h-290v780h-156z" />
<glyph unicode="g" d="M150 941q-6 -13 -6 -27q0 -16 8 -32l446 -884q16 -30 50 -42q16 -6 31 -6q17 0 33 8l874 442q78 38 116 152l142 500q13 26 13 52q0 28 -15 57q-28 55 -86 67h-2l-500 208q-47 15 -89 15q-52 0 -97 -23l-876 -442q-30 -16 -42 -45zM1318 1032q12 62 65 97q39 26 83 26 q16 0 33 -4q63 -13 97 -66q25 -39 25 -83q0 -16 -3 -32q-12 -62 -65 -97q-39 -26 -82 -26q-16 0 -33 4q-62 13 -97 66q-26 39 -26 84q0 15 3 31z" />
<glyph unicode="h" d="M168 -2q0 -20 14 -35t34 -15h1162q22 0 36 15t14 35v468l-8 -2q-12 -10 -46 -24t-42 -18v-172h-1064v906h288q2 10 5 32t7 39t8 29h-360q-20 0 -34 -14t-14 -34v-1210zM706 1150q0 -94 41 -183t104 -152t136 -116t135 -85t104 -50l42 -18q18 6 37 14t80 37t112 61t116 86 t110 111t76 135t31 160q0 98 -41 167t-104 99t-136 30t-135 -28t-104 -89t-42 -139q0 78 -42 139t-104 89t-135 28t-136 -30t-104 -99t-41 -167z" />
<glyph unicode="i" d="M266 705q0 -109 78 -186t186 -77q86 0 156 50l522 -264l-2 -14q0 -110 77 -187t186 -77t186 77t77 186t-77 186t-185 77q-102 0 -176 -68l-504 256q4 22 4 40q0 10 -2 24l508 258q74 -62 170 -62q108 0 186 77t78 186t-78 186t-187 77t-186 -77t-77 -187q0 -10 2 -22 l-508 -260q-74 64 -170 64q-108 0 -186 -77t-78 -186z" />
<glyph unicode="j" d="M248 80v438q0 54 38 92t90 38h440q52 0 90 -38t38 -92v-438q0 -54 -38 -92t-90 -38h-440q-52 0 -90 38t-38 92zM248 882v438q0 54 38 92t90 38h440q52 0 90 -38t38 -92v-438q0 -54 -38 -91t-90 -37h-440q-52 0 -90 37t-38 91zM1056 80v438q0 54 38 92t90 38h440 q52 0 90 -38t38 -92v-438q0 -54 -38 -92t-90 -38h-440q-52 0 -90 38t-38 92zM1056 882v438q0 54 38 92t90 38h440q52 0 90 -38t38 -92v-438q0 -54 -38 -91t-90 -37h-440q-52 0 -90 37t-38 91z" />
<glyph unicode="k" d="M295 912q13 -144 99 -268q122 -180 352 -236v-2l560 382q6 46 6 90q0 181 -100 326q-84 124 -213 188q-118 59 -240 59q-11 0 -23 -1q-134 -6 -239 -78t-160 -194q-44 -99 -44 -212q0 -26 2 -54zM808 360q8 -1 19 -1q22 0 54 3q22 2 43 2q26 0 50 -3q44 -5 94 -25 q38 -16 107 -113t120 -183t51 -88q7 -3 16 -3q29 0 74 33q26 18 40 35t14 25v8q-28 34 -70 88t-113 162t-73 150v15q0 45 10 81q12 42 34 87t28 65zM1306 698zM1437 398q-7 21 -7 41q0 32 17 63q27 50 81 67q22 7 43 7q31 0 62 -15q51 -25 68 -79q7 -21 6 -41q0 -32 -16 -63 q-27 -50 -81 -68q-22 -7 -44 -7q-31 0 -61 15q-51 26 -68 80z" />
<glyph unicode="l" d="M678 700l150 188l150 188l150 188l150 188l12 -10l12 -8l10 -8l12 -8l-144 -180l-144 -180l-144 -178l-144 -180l144 -180l144 -180l144 -180l144 -178l-12 -8l-10 -10l-12 -8l-12 -8l-150 188l-150 188l-150 188z" />
<glyph unicode="m" d="M250 576v566q0 78 74 138t156 60h1086q78 0 131 -58t53 -140v-558q0 -80 -52 -133t-132 -53h-146v-250q0 -22 -11 -49t-25 -35q-12 -4 -34 -4q-18 0 -36 18l-302 316h-532q-84 0 -157 53t-73 129zM372 568q0 -30 22 -54t50 -24h602q24 0 42 -18l212 -238v194q0 26 18 44 t44 18h198q28 0 50 24t22 54v582q0 30 -21 50t-51 20h-1088h-28q-28 0 -50 -21t-22 -49v-582z" />
<glyph unicode="n" d="M250 697q0 -35 15 -57t33 -27t33 -8t15 1h1112l-436 -458q-16 -24 -16 -52q0 -38 27 -65t65 -27q32 0 58 20v2q4 2 276 296t276 298q8 12 16 22t14 18t9 18t3 22q0 16 -9 33t-13 22t-22 25q-2 6 -274 299t-276 297q-26 20 -58 20q-38 0 -65 -27t-27 -65q0 -28 16 -52 l434 -454h-1110q-6 0 -16 -2t-31 -9t-35 -31t-14 -59z" />
<glyph unicode="o" d="M250 704q0 -168 81 -326t226 -265t315 -119v1412q-170 -8 -316 -113t-226 -264t-80 -325zM1128 -6v1412q170 -8 315 -113t226 -264t81 -325q0 -168 -81 -326t-226 -265t-315 -119z" />
<glyph unicode="p" d="M312 36q0 -36 26 -61t62 -25h622q36 0 62 25t26 61v936q0 34 -26 60t-62 26h-622q-36 0 -62 -26t-26 -60v-936zM402 432v440q0 30 23 53t55 23h462q32 0 55 -23t23 -53v-440q0 -32 -23 -55t-55 -23h-462q-32 0 -55 23t-23 55zM838 1116h94l46 150q10 32 38 47t58 5 l442 -134q32 -10 47 -38t5 -58l-130 -420q-8 -30 -37 -45t-59 -7l-174 54v-424l132 -40q13 -4 25 -4q21 0 41 11q32 17 42 51l276 894q4 13 4 25q0 21 -11 41q-17 32 -51 42l-596 180q-13 4 -26 4q-20 0 -40 -10q-32 -16 -42 -52z" />
<glyph unicode="q" d="M250 138v442q2 72 4 109t11 102t27 108t52 95t84 96q64 58 146 95t140 49t164 28v-274q-60 -16 -101 -42t-62 -49t-32 -61t-14 -59t-3 -61h212v-578h-628zM1126 138v442q0 72 2 109t12 102t27 108t51 95t82 96q64 58 148 95t141 49t161 28v-274q-60 -16 -101 -42t-62 -49 t-33 -61t-14 -59t-2 -61h212v-578h-624z" />
<glyph unicode="r" d="M678 -18l576 718l-576 718l46 34l600 -752l-600 -752z" />
<glyph unicode="s" d="M238 869q0 -241 170 -411t412 -170q208 0 368 132l448 -448q22 -22 52 -22t52 22t22 52t-22 52l-452 450q112 154 112 344q0 240 -170 410t-411 170t-411 -170t-170 -411zM384 870q0 180 128 307t308 127t307 -127t127 -307t-127 -308t-307 -128t-308 128t-128 308z M1740 76z" />
<glyph unicode="t" d="M84 120q44 -6 90 -6q262 0 468 162q-122 2 -219 75t-133 187q36 -6 70 -6q52 0 100 12q-130 28 -216 132t-86 240v4q80 -44 170 -48q-76 52 -122 135t-46 181q0 102 52 188q142 -174 344 -278t434 -116q-10 42 -10 86q0 156 111 267t267 111q164 0 276 -120 q128 26 240 92q-44 -134 -166 -208q112 12 216 58q-76 -114 -188 -194q2 -26 2 -50q0 -150 -45 -302t-135 -291t-216 -246t-302 -171t-378 -64q-314 0 -578 170z" />
<glyph unicode="u" d="M270 -50h1002v1210h-1002v-1210zM338 228v848h866v-848h-866zM510 640l260 260l260 -260h-128v-274h-260v274h-132zM704 1192h70l18 168l860 -96l-94 -844l-256 28v-278l294 -32l134 1202l-996 110z" />
<glyph unicode="v" d="M128 784v124l6 2q36 18 42 20h2l4 2q54 18 112 26q86 12 224 12q106 0 209 -16t140 -27t57 -19l8 -8l6 -8l10 2q4 2 8 2h104l4 4q4 6 8 8q34 16 147 39t255 23q140 0 228 -12q60 -8 112 -26l2 -2h2q8 -2 46 -22l8 -6l-2 -118q-8 -132 -30 -230q-30 -134 -80 -164 q-54 -34 -107 -51t-135 -17h-22h-32q-138 0 -184 14q-106 32 -156 150q-30 70 -50 218q-10 76 -10 78l-4 12h-104h-4h-2h-14l-4 -14l-10 -60q-24 -162 -52 -230q-54 -122 -162 -154q-44 -14 -176 -14h-32h-22q-82 0 -135 17t-107 51q-50 30 -80 164q-20 96 -28 230zM224 834 q4 -120 20 -220q18 -120 40 -138q14 -14 18 -16q76 -48 176 -48q154 0 204 14q88 26 126 134q20 56 28 168q4 68 6 84v12l-10 4q-42 20 -130 35t-184 15q-192 0 -284 -28l-10 -4v-12zM1148 812l2 -10q6 -30 10 -76q0 -24 4 -54l8 -60t15 -59t25 -54t39 -44t57 -29 q48 -14 210 -14q100 0 176 48q2 2 7 6t7 6l4 4v2q22 20 40 136q16 104 20 214v18l-12 4q-90 28 -280 28q-90 0 -180 -18t-136 -40z" />
<glyph unicode="w" d="M252 348q-3 3 -3 6t3 6h2q50 50 50 121t-50 121q-3 2 -3 4.5t3 5.5l834 834q3 3 5.5 3t4.5 -3q50 -50 121 -50t119 50l2 2q3 3 6 3l6 -3l24 -24q4 -4 0 -8q-6 -14 1 -21t21 -1q6 2 8 -2l22 -22q4 -2 2 -8q-6 -14 1 -21t21 -1q4 4 8 0l20 -22q4 -4 2 -8q-6 -14 1 -21 t21 -1q4 2 8 -2l22 -20q4 -4 2 -10q-8 -14 0 -21t20 1q6 2 10 -2l20 -22q4 -4 2 -8q-6 -14 1 -21t21 -1q4 2 8 -2l22 -20q4 -4 0 -10q-6 -12 1 -19t21 -1q6 2 8 -2l22 -22q4 -4 2 -8q-6 -14 1 -21t21 -1q4 2 8 0l24 -26q3 -2 3 -4.5t-3 -5.5q-51 -51 -51 -125q0 -70 47 -119 l2 -2q3 -2 3 -4.5t-3 -5.5l-830 -830q-3 -3 -5.5 -3t-4.5 3q-2 0 -2 2q-49 47 -119 47h-3q-72 -1 -122 -51q-3 -3 -5.5 -3t-4.5 3l-26 24q-2 4 0 8q6 14 -1 21t-21 1q-4 -2 -8 2l-22 20q-4 4 -2 10q6 14 -1 21t-19 1q-6 -4 -10 0l-20 22q-4 4 -2 8q6 14 -1 21t-21 1 q-4 -2 -8 2l-22 20q-4 4 -2 10q8 12 1 20t-21 0q-6 -2 -10 2l-20 22q-4 4 -2 8q6 14 -1 21t-21 1q-4 -2 -8 2l-22 20q-4 4 0 8q6 14 -1 21t-21 1q-4 -2 -8 2l-22 22q-4 2 -2 8q6 14 -1 21t-21 1q-4 -4 -8 0zM422 598l4 -10q18 -47 18 -95q0 -42 -14 -85l-2 -8l272 -274l8 4 q44 15 88 15q49 0 96 -19l10 -4l676 676l-4 10q-19 48 -19 96q0 43 15 88l4 8l-274 274l-8 -4q-43 -14 -85 -14q-48 0 -95 18l-10 4zM456 590l654 654q49 -19 99 -19q41 0 83 13l246 -246q-14 -44 -14 -88q0 -49 18 -98l-648 -648q-49 18 -98 18q-44 0 -88 -14l-246 246 q13 42 13 83q0 50 -19 99zM1542 806z" />
<glyph unicode="x" d="M340 22l56 -50q24 -22 56 -22h5q35 2 59 28l484 540l484 -540q24 -26 59 -28h5q32 0 56 22l56 50q26 24 27 59v3q0 33 -21 58l-502 558l502 558q21 25 21 58v3q-1 35 -27 59l-56 50q-24 22 -56 22h-5q-35 -2 -59 -28l-484 -540l-484 540q-24 26 -59 28h-5q-32 0 -56 -22 l-56 -50q-26 -24 -27 -59v-3q0 -33 21 -58l502 -558l-502 -558q-21 -25 -21 -58q0 -37 27 -62z" />
<glyph unicode="y" d="M384 655q42 -163 162 -285l394 -394q26 -26 60 -26t60 26l394 392q183 185 183 445q0 264 -187 451q-186 186 -450 186t-450 -186q-122 -122 -165 -284q-22 -82 -22 -164q0 -80 21 -161zM586 825q0 175 124 299t300 124t300 -124t124 -299t-124 -299t-300 -124t-300 124 t-124 299z" />
<glyph unicode="z" d="M250 833q0 -251 177 -429t429 -178q204 0 366 122l356 -356q30 -30 72 -30t71 29t29 71t-30 70l-362 362q104 154 104 338q0 252 -178 429t-429 177t-428 -177t-177 -428zM402 832q0 188 133 321t321 133t321 -133t133 -321t-133 -321t-321 -133t-321 133t-133 321z M618 834q0 -28 19 -47t47 -19h120v-120q0 -28 19 -47t47 -19t47 20t19 46v120h120q26 0 46 20t20 47t-20 46t-46 19h-120v120q0 28 -20 47t-47 19t-46 -19t-19 -47v-120h-120q-28 0 -47 -19t-19 -47z" />
<glyph unicode="&#x2000;" horiz-adv-x="975" />
<glyph unicode="&#x2001;" horiz-adv-x="1950" />
<glyph unicode="&#x2002;" horiz-adv-x="975" />
<glyph unicode="&#x2003;" horiz-adv-x="1950" />
<glyph unicode="&#x2004;" horiz-adv-x="650" />
<glyph unicode="&#x2005;" horiz-adv-x="487" />
<glyph unicode="&#x2006;" horiz-adv-x="325" />
<glyph unicode="&#x2007;" horiz-adv-x="325" />
<glyph unicode="&#x2008;" horiz-adv-x="243" />
<glyph unicode="&#x2009;" horiz-adv-x="390" />
<glyph unicode="&#x200a;" horiz-adv-x="108" />
<glyph unicode="&#x202f;" horiz-adv-x="390" />
<glyph unicode="&#x205f;" horiz-adv-x="487" />
<glyph unicode="&#x25fc;" horiz-adv-x="1450" d="M0 0v1450h1450v-1450h-1450z" />
</font>
</defs>
</svg>
